<?xml version="1.0" encoding="iso-8859-1"?>
<!-- Uploaded to: SVG Repo, www.svgrepo.com, Generator: SVG Repo Mixer Tools -->
<!DOCTYPE svg PUBLIC "-//W3C//DTD SVG 1.1//EN" "http://www.w3.org/Graphics/SVG/1.1/DTD/svg11.dtd">
<svg fill="#000000" height="800px" width="800px" version="1.1" id="Capa_1" xmlns="http://www.w3.org/2000/svg" xmlns:xlink="http://www.w3.org/1999/xlink" 
	 viewBox="0 0 182.004 182.004" xml:space="preserve">
<g>
	<path d="M181.008,77.886c-0.669-4.385-3.278-8.154-7.158-10.342c-3.919-2.209-8.55-2.489-12.704-0.77l-22.922,9.494
		c-0.896-2.866-2.055-5.615-3.433-8.231l22.942-9.503c4.154-1.721,7.229-5.193,8.438-9.528c1.197-4.291,0.376-8.801-2.251-12.375
		c0,0,0,0,0,0c-5.215-7.092-11.456-13.333-18.548-18.549c-3.574-2.627-8.084-3.449-12.375-2.251
		c-4.334,1.209-7.807,4.285-9.528,8.438l-9.503,22.942c-2.617-1.378-5.366-2.537-8.231-3.433l9.494-22.922
		c1.721-4.153,1.44-8.784-0.769-12.703c-2.188-3.881-5.957-6.49-10.342-7.159c0,0,0,0,0,0c-8.703-1.327-17.529-1.327-26.233,0
		c-4.385,0.669-8.154,3.278-10.342,7.159c-2.209,3.919-2.49,8.55-0.77,12.703l9.494,22.923c-2.866,0.896-5.615,2.055-8.231,3.433
		l-9.503-22.942c-1.721-4.154-5.193-7.229-9.528-8.438c-4.29-1.197-8.8-0.376-12.375,2.251C29.54,23.299,23.299,29.54,18.083,36.632
		c-2.627,3.573-3.448,8.083-2.251,12.375c1.209,4.334,4.285,7.807,8.438,9.528l22.942,9.503c-1.378,2.617-2.537,5.366-3.433,8.231
		l-22.922-9.494c-4.151-1.719-8.782-1.44-12.704,0.77c-3.88,2.188-6.489,5.957-7.158,10.342c-1.328,8.703-1.328,17.529,0,26.232
		c0.669,4.385,3.278,8.154,7.158,10.342c2.222,1.252,4.671,1.885,7.133,1.885c1.882,0,3.771-0.37,5.571-1.115l22.922-9.494
		c0.896,2.866,2.055,5.615,3.433,8.231l-22.942,9.503c-4.154,1.721-7.229,5.193-8.438,9.528c-1.197,4.291-0.376,8.801,2.251,12.375
		c0,0,0,0,0,0c5.215,7.092,11.456,13.333,18.548,18.549c2.497,1.835,5.45,2.789,8.467,2.789c1.301,0,2.615-0.177,3.908-0.538
		c4.334-1.209,7.807-4.285,9.528-8.438l9.503-22.942c2.617,1.378,5.366,2.537,8.231,3.433l-9.494,22.922
		c-1.721,4.153-1.44,8.784,0.769,12.703c2.188,3.881,5.957,6.49,10.342,7.159c0,0,0,0,0,0c4.352,0.664,8.734,0.996,13.116,0.996
		s8.765-0.332,13.117-0.996c4.385-0.669,8.154-3.278,10.342-7.159c2.209-3.919,2.49-8.55,0.77-12.703l-9.494-22.923
		c2.866-0.896,5.615-2.055,8.231-3.433l9.503,22.942c1.721,4.154,5.193,7.229,9.528,8.438c1.293,0.361,2.606,0.538,3.908,0.538
		c3.017,0,5.97-0.954,8.467-2.79c7.092-5.215,13.333-11.456,18.549-18.548c2.627-3.573,3.448-8.083,2.251-12.375
		c-1.209-4.334-4.285-7.807-8.438-9.528l-22.942-9.503c1.378-2.617,2.537-5.366,3.433-8.231l22.922,9.494
		c1.799,0.745,3.688,1.115,5.571,1.115c2.461,0,4.911-0.633,7.133-1.885c3.88-2.188,6.489-5.957,7.158-10.342
		C182.336,95.415,182.336,86.589,181.008,77.886z M167.169,102.007c-0.009,0.061-0.025,0.163-0.194,0.258
		c-0.154,0.086-0.313,0.097-0.471,0.031l-26.051-10.79c0.002-0.168,0.013-0.334,0.013-0.503s-0.011-0.335-0.013-0.503l26.051-10.79
		c0.159-0.066,0.317-0.056,0.471,0.031c0.169,0.095,0.185,0.197,0.194,0.258C168.282,87.299,168.282,94.705,167.169,102.007z
		 M152.687,136.759c0.052,0.188-0.008,0.27-0.045,0.319c-4.376,5.951-9.612,11.188-15.563,15.563
		c-0.049,0.037-0.131,0.097-0.319,0.045c-0.169-0.047-0.289-0.152-0.354-0.311l-10.8-26.073c0.235-0.23,0.468-0.463,0.698-0.698
		l26.073,10.8C152.535,136.47,152.639,136.589,152.687,136.759z M102.265,166.975c-0.095,0.169-0.197,0.185-0.257,0.194
		c-7.304,1.113-14.708,1.113-22.012,0h0c-0.061-0.009-0.162-0.025-0.257-0.194c-0.086-0.153-0.097-0.311-0.031-0.47l10.79-26.051
		c0.168,0.002,0.334,0.013,0.503,0.013s0.335-0.011,0.503-0.013l10.791,26.052C102.361,166.664,102.351,166.821,102.265,166.975z
		 M45.245,152.687c-0.188,0.052-0.27-0.009-0.319-0.045c-5.951-4.376-11.188-9.612-15.563-15.563
		c-0.037-0.049-0.097-0.132-0.045-0.319c0.047-0.169,0.152-0.289,0.311-0.354l26.073-10.8c0.23,0.235,0.463,0.468,0.698,0.698
		l-10.8,26.073C45.534,152.535,45.415,152.639,45.245,152.687z M29.318,45.245c-0.052-0.188,0.008-0.27,0.045-0.319
		c4.376-5.951,9.612-11.188,15.563-15.563c0.036-0.026,0.088-0.065,0.186-0.065c0.038,0,0.082,0.006,0.134,0.021
		c0.169,0.047,0.289,0.152,0.354,0.311l10.8,26.073c-0.235,0.23-0.468,0.463-0.698,0.698L29.628,45.6
		C29.469,45.534,29.365,45.415,29.318,45.245z M79.739,15.029c0.095-0.169,0.197-0.185,0.257-0.194
		C83.648,14.279,87.325,14,91.002,14s7.354,0.279,11.005,0.835c0.061,0.009,0.162,0.025,0.257,0.194
		c0.086,0.153,0.097,0.311,0.031,0.47l-10.79,26.051c-0.168-0.002-0.334-0.013-0.503-0.013s-0.335,0.011-0.503,0.013L79.708,15.499
		C79.643,15.34,79.653,15.183,79.739,15.029z M136.759,29.317c0.052-0.015,0.096-0.021,0.134-0.021c0.097,0,0.15,0.039,0.186,0.065
		c5.951,4.376,11.188,9.612,15.563,15.563c0.037,0.049,0.097,0.132,0.045,0.319c-0.047,0.169-0.152,0.289-0.311,0.354l-26.073,10.8
		c-0.23-0.235-0.463-0.468-0.698-0.698l10.8-26.073C136.47,29.469,136.589,29.365,136.759,29.317z M91.002,126.466
		c-19.555,0-35.464-15.909-35.464-35.464s15.909-35.464,35.464-35.464s35.464,15.909,35.464,35.464S110.557,126.466,91.002,126.466z
		 M41.551,91.505L15.5,102.295c-0.159,0.066-0.317,0.055-0.471-0.031c-0.169-0.095-0.185-0.197-0.194-0.258
		c-1.114-7.302-1.114-14.708,0-22.01c0.009-0.061,0.025-0.163,0.194-0.258c0.087-0.049,0.176-0.074,0.265-0.074
		c0.068,0,0.137,0.014,0.206,0.043l26.051,10.79c-0.002,0.168-0.013,0.334-0.013,0.503S41.549,91.337,41.551,91.505z"/>
</g>
</svg>